<?xml version="1.0" encoding="UTF-8" standalone="no" ?>
<!DOCTYPE svg PUBLIC "-//W3C//DTD SVG 1.1//EN" "http://www.w3.org/Graphics/SVG/1.1/DTD/svg11.dtd">
<svg xmlns="http://www.w3.org/2000/svg" xmlns:xlink="http://www.w3.org/1999/xlink" version="1.1" width="40" height="40" viewBox="0 0 13.33 13.33" xml:space="preserve">
<desc>Created with Fabric.js 3.6.3</desc>
<defs>
</defs>
    <g transform="matrix(0.03 0 0 0.03 6.74 6.72)"  >
        <g style=""   >
            <g transform="matrix(5.69 0 0 5.69 -0.4 -2.4)"  >
                <circle style="stroke: rgb(0,0,0); stroke-width: 0; stroke-dasharray: none; stroke-linecap: butt; stroke-dashoffset: 0; stroke-linejoin: round; stroke-miterlimit: 4; fill: rgb(258,103,103); fill-rule: nonzero; opacity: 1;"  cx="0" cy="0" r="38" />
            </g>
            <g transform="matrix(-0.03 -2.5 1.5 -0.02 -3.98 -57.56)"  >
                <path style="stroke: rgb(0,0,0); stroke-width: 0; stroke-dasharray: none; stroke-linecap: butt; stroke-dashoffset: 0; stroke-linejoin: miter; stroke-miterlimit: 4; fill: rgb(35,35,35); fill-rule: nonzero; opacity: 1;"  transform=" translate(-68.2, -20.73)" d="m 20.013628 0 l 84.37401 0 l 0 0 c 11.053215 -1.04756605e-14 20.013626 9.282301 20.013626 20.7326 c 0 11.450296 -8.960411 20.7326 -20.013626 20.7326 l -80.37401 0 l 0 0 c -11.053222 0 -20.013628 -9.282303 -20.013628 -20.7326 c -5.2380687e-15 -11.450298 8.960406 -20.7326 20.013628 -20.7326 z" stroke-linecap="round" />
            </g>
            <g transform="matrix(0.84 0 0 0.84 -2.53 153.47)"  >
                <circle style="stroke: rgb(0,0,0); stroke-width: 0; stroke-dasharray: none; stroke-linecap: butt; stroke-dashoffset: 0; stroke-linejoin: miter; stroke-miterlimit: 4; fill: rgb(35,35,35); fill-rule: nonzero; opacity: 1;"  cx="0" cy="0" r="40" />
            </g>
        </g>
    </g>
</svg>